<svg width="1280" height="720" viewBox="0 0 1280 720" fill="none" xmlns="http://www.w3.org/2000/svg">
  <defs>
    <linearGradient id="bg" x1="640" y1="0" x2="640" y2="720" gradientUnits="userSpaceOnUse">
      <stop stop-color="#314A5E"/>
      <stop offset="1" stop-color="#152634"/>
    </linearGradient>
    <linearGradient id="water" x1="640" y1="290" x2="640" y2="620" gradientUnits="userSpaceOnUse">
      <stop stop-color="#5AA7BC"/>
      <stop offset="1" stop-color="#2C607A"/>
    </linearGradient>
    <radialGradient id="duckBody" cx="0" cy="0" r="1" gradientUnits="userSpaceOnUse" gradientTransform="translate(610 456) rotate(16) scale(290 128)">
      <stop stop-color="#F8E592"/>
      <stop offset="1" stop-color="#D9B54F"/>
    </radialGradient>
    <radialGradient id="duckWing" cx="0" cy="0" r="1" gradientUnits="userSpaceOnUse" gradientTransform="translate(632 454) rotate(12) scale(140 80)">
      <stop stop-color="#F1D676"/>
      <stop offset="1" stop-color="#CFA64A"/>
    </radialGradient>
  </defs>

  <rect width="1280" height="720" fill="url(#bg)"/>
  <rect y="290" width="1280" height="330" fill="url(#water)"/>
  <rect y="620" width="1280" height="100" fill="#1E3B33"/>

  <g stroke="#9CDBEC" stroke-width="4" opacity="0.52">
    <path d="M0 342C120 318 220 356 340 342C480 320 578 356 712 342C840 326 950 357 1080 342C1170 330 1230 338 1280 346"/>
    <path d="M0 430C120 406 220 446 340 430C480 408 578 446 712 430C840 414 950 447 1080 430C1170 418 1230 427 1280 436"/>
    <path d="M0 512C120 488 220 528 340 512C480 490 578 528 712 512C840 496 950 529 1080 512C1170 500 1230 509 1280 518"/>
  </g>

  <g transform="translate(620 436)">
    <ellipse cx="0" cy="110" rx="232" ry="56" fill="#153A47" opacity="0.74"/>

    <ellipse cx="0" cy="44" rx="224" ry="84" fill="url(#duckBody)"/>
    <ellipse cx="10" cy="30" rx="124" ry="56" fill="url(#duckWing)"/>

    <path d="M-220 54C-278 42 -314 66 -314 92C-314 118 -274 143 -222 130" fill="#E09A64"/>
    <path d="M220 54C278 42 314 66 314 92C314 118 274 143 222 130" fill="#E09A64"/>

    <g transform="translate(0 -4)">
      <ellipse cx="0" cy="-62" rx="52" ry="56" fill="#EAD777"/>
      <ellipse cx="0" cy="-68" rx="34" ry="34" fill="#F4E38A"/>
      <path d="M-26 -54C-6 -66 8 -66 28 -54C22 -41 10 -34 0 -34C-10 -34 -22 -41 -26 -54Z" fill="#DE955F"/>
    </g>

    <g transform="translate(0 -38)">
      <ellipse cx="0" cy="0" rx="66" ry="82" fill="#8D8A83"/>
      <ellipse cx="0" cy="10" rx="39" ry="49" fill="#EAE0D1"/>
      <path d="M-44 -10C-28 -25 -10 -32 0 -32C10 -32 28 -25 44 -10C44 18 21 40 0 40C-21 40 -44 18 -44 -10Z" fill="#4A5150"/>
      <ellipse cx="-20" cy="-4" rx="12" ry="14" fill="#252A29"/>
      <ellipse cx="20" cy="-4" rx="12" ry="14" fill="#252A29"/>
      <path d="M54 16C72 28 72 44 56 58" stroke="#6F6D66" stroke-width="8" stroke-linecap="round"/>
      <path d="M57 23C68 31 68 42 59 51" stroke="#E7DDCC" stroke-width="4" stroke-linecap="round"/>
    </g>

    <path d="M-32 -6C-14 -17 10 -17 30 -6C25 6 13 16 -1 19C-16 15 -28 6 -32 -6Z" fill="#E4935A"/>
  </g>

  <rect x="72" y="48" width="400" height="86" rx="14" fill="#0D1822" stroke="#71AFC0"/>
  <text x="98" y="98" fill="#AFDDE7" font-family="Segoe UI, Microsoft YaHei" font-size="34" font-weight="700">RIVER FERRY PHASE</text>
  <text x="72" y="674" fill="#C9E8F3" font-family="Segoe UI, Microsoft YaHei" font-size="30">Sia ferries Luisa through rapid channels to reach relic islands.</text>
</svg>